<?xml version="1.0" encoding="UTF-8"?>
<svg id="Layer_2" data-name="Layer 2" xmlns="http://www.w3.org/2000/svg" viewBox="0 0 1308.81 1311.22">
  <defs>
    <style>
      .cls-1 {
        fill: #fff;
      }
    </style>
  </defs>
  <g id="Layer_1-2" data-name="Layer 1">
    <g>
      <g>
        <path class="cls-1" d="M0,655.59c0,239.29,128.17,448.6,319.6,563.08v-455.45s0,0,0,0c-10.57-33.33-16.25-68.9-16.25-105.73s5.68-72.35,16.25-105.73c44.83-141.76,177.42-244.51,333.98-244.51,122.07,0,229.56,62.43,292.27,157.17l220.2-220.2C1045.95,95.25,861.92,0,655.63,0c-122.81,0-237.76,33.75-336.03,92.55C128.17,207.03,0,416.34,0,655.59"/>
        <path class="cls-1" d="M947.53,848.04c-62.24,95.81-170.06,159.31-292.74,159.73v-117.13s0-466.99,0-466.99h0s-1.21,0-1.21,0c-50.24,0-96.68,15.92-136.73,41.26-53.91,34.1-85.52,94.44-85.52,158.24v105.77s0,199.35,0,199.35h0s0,342.93,0,342.93c0,.41.26.78.65.93,69.51,25.22,144.57,39.01,222.82,39.1h.84c206.38,0,390.45-95.34,510.66-244.41,0,0,0,0,0,0l-218.76-218.76Z"/>
      </g>
      <g>
        <path class="cls-1" d="M1257.05,683.84l-11.59-16.74h-12.79v16.74h-13.91v-60.08h26.01c16.05,0,26.09,8.32,26.09,21.81,0,9.01-4.55,15.62-12.36,18.97l13.47,19.31h-14.94ZM1244,635.09h-11.33v20.95h11.33c8.5,0,12.79-3.95,12.79-10.47s-4.29-10.48-12.79-10.48Z"/>
        <path class="cls-1" d="M1241.05,587.84c-37.43,0-67.76,30.34-67.76,67.76s30.34,67.76,67.76,67.76,67.76-30.34,67.76-67.76-30.34-67.76-67.76-67.76ZM1241.05,707.74c-28.79,0-52.13-23.34-52.13-52.13s23.34-52.13,52.13-52.13,52.13,23.34,52.13,52.13-23.34,52.13-52.13,52.13Z"/>
      </g>
    </g>
  </g>
</svg>